<svg xmlns="http://www.w3.org/2000/svg" viewBox="0 0 32 32">
  <circle cx="16" cy="16" r="15" fill="#F7931A"/>
  <path d="M22.5 14.2c0.3-2-1.2-3.1-3.3-3.8l0.7-2.7-1.6-0.4-0.7 2.6c-0.4-0.1-0.9-0.2-1.3-0.3l0.7-2.6-1.6-0.4-0.7 2.7c-0.3-0.1-0.7-0.2-1-0.2l0-0.1-2.2-0.6-0.4 1.7s1.2 0.3 1.2 0.3c0.7 0.2 0.8 0.6 0.8 1l-0.8 3.1c0 0.1 0.1 0.2 0.2 0.2-0.1 0-0.1 0-0.2 0l-1.1 4.4c-0.1 0.2-0.3 0.5-0.8 0.4 0 0-1.2-0.3-1.2-0.3l-0.8 1.9 2.1 0.5c0.4 0.1 0.8 0.2 1.2 0.3l-0.7 2.7 1.6 0.4 0.7-2.7c0.4 0.1 0.9 0.2 1.3 0.3l-0.7 2.7 1.6 0.4 0.7-2.7c2.7 0.5 4.7 0.3 5.5-2.1 0.7-1.9 0-3-1.4-3.7 1-0.2 1.7-0.9 1.9-2.3zM19 20.2c-0.5 1.9-3.7 0.9-4.7 0.6l0.8-3.3c1 0.3 4.3 0.8 3.9 2.7zm0.5-4.9c-0.4 1.7-3.1 0.8-4 0.6l0.8-3c0.9 0.2 3.7 0.7 3.2 2.4z" fill="white"/>
</svg>
